{
	"asset":{
		"generator":"Khronos glTF Blender I/O v4.0.44",
		"version":"2.0"
	},
	"scene":0,
	"scenes":[
		{
			"name":"Scene",
			"nodes":[
				0,
				1
			]
		}
	],
	"nodes":[
		{
			"mesh":0,
			"name":"Sphere",
			"translation":[
				-0.05915456265211105,
				1.3415571451187134,
				0.18183916807174683
			]
		},
		{
			"mesh":1,
			"name":"Sphere.001",
			"translation":[
				-0.2349797487258911,
				2.199307680130005,
				0.7223199009895325
			]
		}
	],
	"materials":[
		{
			"doubleSided":true,
			"name":"ghost white",
			"pbrMetallicRoughness":{
				"baseColorFactor":[
					0.9945454597473145,
					0.9945454597473145,
					0.9945454597473145,
					1
				],
				"metallicFactor":0,
				"roughnessFactor":0.7090908885002136
			}
		},
		{
			"doubleSided":true,
			"name":"ghost eyes",
			"pbrMetallicRoughness":{
				"baseColorFactor":[
					0,
					0,
					0,
					1
				],
				"metallicFactor":0,
				"roughnessFactor":0.23636364936828613
			}
		},
		{
			"doubleSided":true,
			"name":"ghost blush",
			"pbrMetallicRoughness":{
				"baseColorFactor":[
					0.8000000715255737,
					0.2639521062374115,
					0.5673604011535645,
					1
				],
				"metallicFactor":0,
				"roughnessFactor":0.5
			}
		}
	],
	"meshes":[
		{
			"name":"Mesh",
			"primitives":[
				{
					"attributes":{
						"POSITION":0,
						"NORMAL":1,
						"TEXCOORD_0":2
					},
					"indices":3,
					"material":0
				}
			]
		},
		{
			"name":"Mesh",
			"primitives":[
				{
					"attributes":{
						"POSITION":4,
						"NORMAL":5,
						"TEXCOORD_0":6
					},
					"indices":7,
					"material":1
				},
				{
					"attributes":{
						"POSITION":8,
						"NORMAL":9,
						"TEXCOORD_0":10
					},
					"indices":11,
					"material":2
				}
			]
		}
	],
	"accessors":[
		{
			"bufferView":0,
			"componentType":5126,
			"count":7278,
			"max":[
				0.5939429998397827,
				1.3350374698638916,
				0.5939428806304932
			],
			"min":[
				-0.5939426422119141,
				-0.0632748156785965,
				-0.5939425826072693
			],
			"type":"VEC3"
		},
		{
			"bufferView":1,
			"componentType":5126,
			"count":7278,
			"type":"VEC3"
		},
		{
			"bufferView":2,
			"componentType":5126,
			"count":7278,
			"type":"VEC2"
		},
		{
			"bufferView":3,
			"componentType":5123,
			"count":39168,
			"type":"SCALAR"
		},
		{
			"bufferView":4,
			"componentType":5126,
			"count":5269,
			"max":[
				0.4043976068496704,
				0.0545901395380497,
				0.06433792412281036
			],
			"min":[
				-0.052747249603271484,
				-0.2959767282009125,
				-0.05274725705385208
			],
			"type":"VEC3"
		},
		{
			"bufferView":5,
			"componentType":5126,
			"count":5269,
			"type":"VEC3"
		},
		{
			"bufferView":6,
			"componentType":5126,
			"count":5269,
			"type":"VEC2"
		},
		{
			"bufferView":7,
			"componentType":5123,
			"count":26688,
			"type":"SCALAR"
		},
		{
			"bufferView":8,
			"componentType":5126,
			"count":4659,
			"max":[
				0.4927630126476288,
				-0.10757794231176376,
				0.022609157487750053
			],
			"min":[
				-0.14111265540122986,
				-0.17971770465373993,
				-0.05453098565340042
			],
			"type":"VEC3"
		},
		{
			"bufferView":9,
			"componentType":5126,
			"count":4659,
			"type":"VEC3"
		},
		{
			"bufferView":10,
			"componentType":5126,
			"count":4659,
			"type":"VEC2"
		},
		{
			"bufferView":11,
			"componentType":5123,
			"count":23040,
			"type":"SCALAR"
		}
	],
	"bufferViews":[
		{
			"buffer":0,
			"byteLength":87336,
			"byteOffset":0,
			"target":34962
		},
		{
			"buffer":0,
			"byteLength":87336,
			"byteOffset":87336,
			"target":34962
		},
		{
			"buffer":0,
			"byteLength":58224,
			"byteOffset":174672,
			"target":34962
		},
		{
			"buffer":0,
			"byteLength":78336,
			"byteOffset":232896,
			"target":34963
		},
		{
			"buffer":0,
			"byteLength":63228,
			"byteOffset":311232,
			"target":34962
		},
		{
			"buffer":0,
			"byteLength":63228,
			"byteOffset":374460,
			"target":34962
		},
		{
			"buffer":0,
			"byteLength":42152,
			"byteOffset":437688,
			"target":34962
		},
		{
			"buffer":0,
			"byteLength":53376,
			"byteOffset":479840,
			"target":34963
		},
		{
			"buffer":0,
			"byteLength":55908,
			"byteOffset":533216,
			"target":34962
		},
		{
			"buffer":0,
			"byteLength":55908,
			"byteOffset":589124,
			"target":34962
		},
		{
			"buffer":0,
			"byteLength":37272,
			"byteOffset":645032,
			"target":34962
		},
		{
			"buffer":0,
			"byteLength":46080,
			"byteOffset":682304,
			"target":34963
		}
	],
	"buffers":[
		{
			"byteLength":728384,
			"uri":"character.bin"
		}
	]
}
